<svg width="64" height="64" viewBox="0 0 64 64" fill="none" xmlns="http://www.w3.org/2000/svg">
<circle cx="32" cy="32" r="32" fill="#2F80ED"/>
<mask id="mask0_1_541" style="mask-type:alpha" maskUnits="userSpaceOnUse" x="0" y="0" width="64" height="64">
<circle cx="32" cy="32" r="32" fill="url(#paint0_linear_1_541)"/>
</mask>
<g mask="url(#mask0_1_541)">
<path d="M34.3795 61.459L36.0903 70.4409" stroke="white" stroke-linecap="round"/>
<path d="M35.8861 53.1914C37.6964 52.7528 41.4986 52.4893 42.223 54.9453C42.9471 57.4016 41.9212 58.6011 41.3177 58.8936C44.7876 61.3793 51.2746 68.281 49.4642 76.001H14.1625C12.3521 68.2809 18.8391 61.3792 22.309 58.8936C21.7055 58.6011 20.6797 57.4025 21.4037 54.9463C22.1278 52.49 25.9292 52.7528 27.7396 53.1914L31.8129 54.9463L35.8861 53.1914Z" fill="#333333"/>
<path d="M34.3794 63.1697L42.0782 58.4648L42.9336 60.1757L34.3794 63.1697Z" fill="#1D1D1D"/>
<mask id="mask1_1_541" style="mask-type:alpha" maskUnits="userSpaceOnUse" x="13" y="52" width="37" height="25">
<path d="M35.8861 53.1914C37.6964 52.7528 41.4986 52.4893 42.223 54.9453C42.9471 57.4016 41.9212 58.6011 41.3177 58.8936C44.7876 61.3793 51.2746 68.281 49.4642 76.001H14.1625C12.3521 68.2809 18.8391 61.3792 22.309 58.8936C21.7055 58.6011 20.6797 57.4025 21.4037 54.9463C22.1278 52.49 25.9292 52.7528 27.7396 53.1914L31.8129 54.9463L35.8861 53.1914Z" fill="#333333"/>
</mask>
<g mask="url(#mask1_1_541)">
<path d="M29.247 63.1697L21.5482 58.4648L20.6927 60.1757L29.247 63.1697Z" fill="#1D1D1D"/>
</g>
<path d="M29.247 61.8857L27.5361 70.8677" stroke="white" stroke-linecap="round"/>
<path d="M30.0289 45.8004C32.4113 47.1586 34.7321 46.6645 36.2887 44.9667" stroke="#EB5757" stroke-linecap="round"/>
<rect x="25.8252" y="41.7832" width="11.9759" height="17.9639" rx="5.98795" fill="#F5B1B1"/>
<path d="M43.7891 31.5182C43.7891 35.2977 44.5677 38.7893 47.6385 38.7893C50.7093 38.7893 53.6265 34.4422 53.6265 30.6628C53.6265 26.8833 52.4202 24.6748 49.3494 24.6748C46.2785 24.6748 43.7891 27.7387 43.7891 31.5182Z" fill="#F5B1B1"/>
<path d="M19.8373 31.5192C19.8373 35.2986 19.0588 38.7902 15.988 38.7902C12.9171 38.7902 10 34.4432 10 30.6637C10 26.8842 11.2063 24.6758 14.2771 24.6758C17.3479 24.6758 19.8373 27.7397 19.8373 31.5192Z" fill="#F5B1B1"/>
<rect x="14.7048" y="10.1328" width="34.2169" height="41.9157" rx="17.1084" fill="#FFD9CB"/>
<rect x="30.9578" y="37.5059" width="3.42169" height="5.98795" rx="1.71084" fill="#F5B1B1"/>
<circle cx="24.259" cy="32.374" r="2" fill="#092C4C"/>
<circle cx="39.259" cy="32.374" r="2" fill="#092C4C"/>
<path d="M34 27C35.35 27 39.04 27 43 27" stroke="#092C4C" stroke-linecap="round"/>
<path d="M20 24C21.35 24 25.04 24 29 24" stroke="#092C4C" stroke-linecap="round"/>
<path d="M34.6621 2C37.6949 2 40.1823 4.32896 40.4365 7.2959C40.6175 7.27887 40.8009 7.27051 40.9863 7.27051C43.6425 7.27051 45.8795 9.05724 46.5654 11.4941C46.6376 11.4892 46.7108 11.4863 46.7842 11.4863C48.5303 11.4865 49.9462 12.9023 49.9463 14.6484C49.9463 15.1423 49.8288 15.608 49.627 16.0244C50.445 16.4716 51 17.3399 51 18.3379C51 19.7931 49.8204 20.9725 48.3652 20.9727C47.6927 20.9727 47.0809 20.7184 46.6152 20.3037C46.0793 20.7213 45.4078 20.9726 44.6758 20.9727C43.2828 20.9727 42.1003 20.0721 41.6787 18.8213C41.4516 18.8483 41.2207 18.8652 40.9863 18.8652C40.3825 18.8652 39.8003 18.7719 39.2529 18.6006C38.6565 21.1676 36.3569 23.0809 33.6084 23.0811C30.8061 23.0811 28.4675 21.0929 27.9277 18.4502C27.4193 18.7144 26.842 18.8652 26.2295 18.8652C25.9408 18.8652 25.6602 18.8303 25.3906 18.7676C24.8194 20.0658 23.523 20.9726 22.0137 20.9727C20.8228 20.9727 19.7644 20.408 19.0898 19.5322C18.6541 20.3867 17.7681 20.9727 16.7432 20.9727C15.2879 20.9726 14.1084 19.7932 14.1084 18.3379C14.1084 17.8822 14.2231 17.453 14.4268 17.0791C14.2248 16.6627 14.1085 16.197 14.1084 15.7031C14.1084 15.5858 14.1145 15.4695 14.127 15.3555C12.8707 14.7672 12.0001 13.4925 12 12.0137C12 9.97619 13.652 8.32422 15.6895 8.32422C16.7219 8.32429 17.6546 8.74909 18.3242 9.43262C18.7367 9.01148 19.249 8.68865 19.8232 8.50293C19.539 7.98002 19.3779 7.38019 19.3779 6.74316C19.378 4.70578 21.03 3.05381 23.0674 3.05371C24.6506 3.05371 26.001 4.05144 26.5244 5.45215C27.095 5.26439 27.7045 5.16211 28.3379 5.16211C28.716 5.16211 29.0854 5.19943 29.4434 5.26855C30.3826 3.33367 32.3668 2.00002 34.6621 2Z" fill="#092C4C"/>
</g>
<defs>
<linearGradient id="paint0_linear_1_541" x1="32" y1="0" x2="32" y2="64" gradientUnits="userSpaceOnUse">
<stop stop-color="#FFC1C2"/>
<stop offset="1" stop-color="#E97C7C"/>
</linearGradient>
</defs>
</svg>
