<?xml version="1.0" encoding="UTF-8"?>
<svg xmlns="http://www.w3.org/2000/svg" xmlns:xlink="http://www.w3.org/1999/xlink" width="85px" height="85px" viewBox="0 0 85 85" version="1.1">
<g id="surface1">
<path style=" stroke:none;fill-rule:nonzero;fill:rgb(4.705882%,17.254902%,29.803923%);fill-opacity:1;" d="M 38.121094 43.714844 C 38.121094 45.5 38.125 47.285156 38.121094 49.070312 C 38.121094 49.996094 37.835938 50.351562 36.9375 50.5625 C 36.21875 50.730469 35.496094 50.730469 34.773438 50.597656 C 34.414062 50.527344 34.050781 50.40625 33.90625 50.019531 C 33.796875 49.710938 33.695312 49.703125 33.429688 49.882812 C 31.332031 51.308594 28.152344 50.984375 26.417969 49.15625 C 25.375 48.058594 24.929688 46.6875 24.890625 45.222656 C 24.828125 42.828125 24.863281 40.421875 24.867188 38.023438 C 24.867188 37.378906 25.175781 36.988281 25.84375 36.796875 C 26.746094 36.542969 27.660156 36.554688 28.554688 36.800781 C 29.25 36.992188 29.519531 37.390625 29.519531 38.125 C 29.523438 40.226562 29.519531 42.328125 29.523438 44.429688 C 29.527344 45.964844 30.640625 46.808594 32.125 46.414062 C 32.976562 46.183594 33.476562 45.546875 33.480469 44.644531 C 33.488281 42.5 33.480469 40.347656 33.484375 38.203125 C 33.484375 37.269531 33.765625 36.914062 34.671875 36.722656 C 35.390625 36.570312 36.117188 36.574219 36.835938 36.722656 C 37.777344 36.925781 38.113281 37.347656 38.113281 38.3125 C 38.117188 40.117188 38.117188 41.914062 38.121094 43.714844 C 38.117188 43.714844 38.117188 43.714844 38.121094 43.714844 Z M 38.121094 43.714844 "/>
<path style=" stroke:none;fill-rule:nonzero;fill:rgb(4.705882%,17.254902%,29.803923%);fill-opacity:1;" d="M 44.441406 37.761719 C 45.882812 36.675781 47.429688 36.398438 49.078125 36.726562 C 51.351562 37.1875 52.789062 38.761719 53.210938 41.164062 C 53.324219 41.820312 53.359375 42.484375 53.367188 43.144531 C 53.382812 45.089844 53.375 47.03125 53.375 48.972656 C 53.375 50.082031 52.980469 50.496094 51.875 50.632812 C 51.160156 50.722656 50.460938 50.714844 49.761719 50.535156 C 49.046875 50.351562 48.792969 50.066406 48.710938 49.324219 C 48.6875 49.136719 48.691406 48.945312 48.691406 48.761719 C 48.6875 46.753906 48.703125 44.75 48.683594 42.746094 C 48.667969 41.09375 47.128906 40.238281 45.683594 41.058594 C 45.210938 41.328125 44.929688 41.726562 44.863281 42.261719 C 44.828125 42.542969 44.808594 42.828125 44.804688 43.113281 C 44.800781 45.136719 44.804688 47.152344 44.800781 49.175781 C 44.800781 50.042969 44.507812 50.417969 43.65625 50.59375 C 42.828125 50.757812 41.988281 50.75 41.167969 50.53125 C 40.484375 50.355469 40.152344 49.933594 40.152344 49.230469 C 40.148438 45.539062 40.148438 41.839844 40.160156 38.148438 C 40.164062 37.359375 40.457031 37 41.226562 36.796875 C 41.953125 36.601562 42.6875 36.589844 43.425781 36.738281 C 43.964844 36.835938 44.363281 37.097656 44.441406 37.761719 Z M 44.441406 37.761719 "/>
<path style=" stroke:none;fill-rule:nonzero;fill:rgb(4.705882%,17.254902%,29.803923%);fill-opacity:1;" d="M 69.121094 39.882812 C 69.964844 41.375 70.238281 42.898438 70.046875 44.507812 C 69.558594 48.613281 66.289062 50.882812 62.589844 50.839844 C 60.398438 50.8125 58.421875 50.242188 56.890625 48.625 C 54.925781 46.550781 54.472656 44.050781 55.234375 41.371094 C 55.933594 38.894531 57.65625 37.378906 60.121094 36.667969 C 60.503906 36.558594 60.667969 36.585938 60.617188 37.042969 C 60.550781 37.675781 60.671875 38.300781 60.859375 38.910156 C 61.039062 39.476562 61.03125 40.054688 60.914062 40.636719 C 60.847656 40.972656 60.699219 41.222656 60.429688 41.464844 C 59.757812 42.070312 59.613281 42.890625 59.664062 43.757812 C 59.746094 45.167969 60.765625 46.304688 62.085938 46.441406 C 63.695312 46.609375 64.910156 45.816406 65.289062 44.347656 C 65.328125 44.195312 65.371094 44.035156 65.347656 43.882812 C 65.207031 42.804688 65.933594 42.292969 66.6875 41.808594 C 67 41.601562 67.367188 41.476562 67.691406 41.28125 C 68.25 40.945312 68.707031 40.484375 69.121094 39.882812 Z M 69.121094 39.882812 "/>
<path style=" stroke:none;fill-rule:nonzero;fill:rgb(4.705882%,17.254902%,29.803923%);fill-opacity:1;" d="M 16.996094 40.386719 C 16.996094 42.109375 16.992188 43.832031 16.996094 45.550781 C 16.996094 46.257812 16.914062 46.164062 17.585938 46.164062 C 19.195312 46.167969 20.808594 46.164062 22.417969 46.164062 C 23.457031 46.164062 23.894531 46.5 24.070312 47.523438 C 24.195312 48.242188 24.195312 48.96875 23.945312 49.675781 C 23.726562 50.289062 23.324219 50.617188 22.671875 50.617188 C 19.71875 50.628906 16.769531 50.640625 13.816406 50.613281 C 12.742188 50.605469 12.246094 50.050781 12.238281 48.964844 C 12.234375 44.292969 12.234375 39.617188 12.238281 34.949219 C 12.238281 34.109375 12.539062 33.742188 13.347656 33.539062 C 14.128906 33.351562 14.914062 33.335938 15.691406 33.511719 C 16.671875 33.730469 16.988281 34.128906 16.988281 35.128906 C 17 36.882812 16.996094 38.632812 16.996094 40.386719 Z M 16.996094 40.386719 "/>
<path style=" stroke:none;fill-rule:nonzero;fill:rgb(94.901961%,60.000002%,29.803923%);fill-opacity:1;" d="M 62.207031 42.085938 C 61.257812 41.652344 61.25 41.652344 61.480469 40.65625 C 61.652344 39.90625 61.554688 39.1875 61.351562 38.464844 C 60.679688 36.007812 62.164062 33.730469 64.679688 33.355469 C 66.453125 33.085938 68.246094 34.066406 68.96875 35.703125 C 69.71875 37.398438 69.257812 39.3125 67.8125 40.484375 C 67.507812 40.734375 67.179688 40.960938 66.808594 41.105469 C 66.003906 41.433594 65.378906 41.972656 64.949219 42.714844 C 64.730469 43.089844 64.511719 43.207031 64.132812 42.960938 C 63.988281 42.867188 63.8125 42.824219 63.65625 42.753906 C 64.035156 41.695312 64.601562 40.730469 65.179688 39.777344 C 65.359375 39.472656 65.550781 39.25 65.960938 39.34375 C 66.117188 39.378906 66.304688 39.328125 66.457031 39.230469 C 66.660156 39.105469 66.8125 38.925781 66.707031 38.683594 C 66.597656 38.441406 66.375 38.363281 66.109375 38.453125 C 65.871094 38.535156 65.714844 38.703125 65.566406 38.890625 C 65.410156 39.078125 65.25 38.976562 65.101562 38.890625 C 64.894531 38.773438 65.039062 38.667969 65.128906 38.554688 C 65.28125 38.367188 65.347656 38.164062 65.203125 37.953125 C 65.109375 37.816406 64.960938 37.75 64.792969 37.796875 C 64.550781 37.859375 64.441406 38.039062 64.382812 38.265625 C 64.351562 38.390625 64.445312 38.628906 64.164062 38.570312 C 63.941406 38.527344 63.839844 38.390625 63.859375 38.164062 C 63.882812 37.960938 63.878906 37.757812 63.8125 37.558594 C 63.746094 37.339844 63.617188 37.179688 63.375 37.222656 C 63.128906 37.265625 63.011719 37.445312 63.007812 37.703125 C 63.003906 37.945312 63.121094 38.152344 63.285156 38.28125 C 63.585938 38.519531 63.539062 38.777344 63.449219 39.078125 C 63.128906 40.125 62.699219 41.117188 62.207031 42.085938 Z M 62.207031 42.085938 "/>
<path style=" stroke:none;fill-rule:nonzero;fill:rgb(4.705882%,17.254902%,29.803923%);fill-opacity:1;" d="M 62.207031 42.085938 C 62.699219 41.117188 63.128906 40.125 63.445312 39.078125 C 63.535156 38.773438 63.578125 38.519531 63.28125 38.28125 C 63.121094 38.148438 62.996094 37.941406 63.003906 37.703125 C 63.007812 37.445312 63.125 37.269531 63.371094 37.222656 C 63.613281 37.179688 63.742188 37.335938 63.808594 37.558594 C 63.875 37.757812 63.878906 37.960938 63.855469 38.164062 C 63.835938 38.390625 63.9375 38.527344 64.15625 38.570312 C 64.441406 38.628906 64.347656 38.390625 64.378906 38.265625 C 64.4375 38.039062 64.542969 37.855469 64.785156 37.796875 C 64.957031 37.753906 65.105469 37.816406 65.199219 37.953125 C 65.347656 38.167969 65.277344 38.375 65.121094 38.554688 C 65.035156 38.664062 64.890625 38.769531 65.097656 38.890625 C 65.246094 38.976562 65.40625 39.078125 65.558594 38.890625 C 65.710938 38.703125 65.871094 38.535156 66.105469 38.453125 C 66.367188 38.363281 66.59375 38.4375 66.703125 38.683594 C 66.8125 38.925781 66.65625 39.105469 66.453125 39.230469 C 66.300781 39.328125 66.113281 39.375 65.957031 39.34375 C 65.546875 39.25 65.355469 39.46875 65.171875 39.777344 C 64.597656 40.730469 64.03125 41.695312 63.652344 42.753906 C 63.542969 42.769531 63.429688 42.773438 63.429688 42.609375 C 63.882812 41.636719 64.339844 40.675781 64.902344 39.757812 C 65.003906 39.59375 65.371094 39.441406 65.132812 39.210938 C 64.96875 39.054688 64.742188 38.890625 64.480469 38.851562 C 64.328125 38.832031 64.167969 38.816406 64.019531 38.769531 C 63.84375 38.71875 63.753906 38.761719 63.707031 38.9375 C 63.410156 40.070312 62.878906 41.105469 62.449219 42.183594 C 62.355469 42.207031 62.261719 42.195312 62.207031 42.085938 Z M 63.527344 38.238281 C 63.667969 37.921875 63.683594 37.691406 63.472656 37.484375 C 63.421875 37.433594 63.347656 37.457031 63.3125 37.511719 C 63.132812 37.796875 63.316406 37.976562 63.527344 38.238281 Z M 65.792969 39.074219 C 66.078125 39.105469 66.324219 39.140625 66.472656 38.871094 C 66.523438 38.777344 66.488281 38.675781 66.371094 38.664062 C 66.082031 38.628906 65.929688 38.808594 65.792969 39.074219 Z M 65.066406 38.214844 C 65.070312 38.101562 65.015625 38.011719 64.914062 38.007812 C 64.710938 37.996094 64.652344 38.148438 64.636719 38.3125 C 64.628906 38.414062 64.617188 38.582031 64.769531 38.546875 C 64.917969 38.519531 65.015625 38.367188 65.066406 38.214844 Z M 65.066406 38.214844 "/>
<path style=" stroke:none;fill-rule:nonzero;fill:rgb(94.901961%,60.000002%,29.803923%);fill-opacity:1;" d="M 62.457031 42.191406 C 62.886719 41.109375 63.417969 40.074219 63.714844 38.941406 C 63.761719 38.765625 63.851562 38.722656 64.027344 38.773438 C 64.175781 38.816406 64.332031 38.832031 64.488281 38.859375 C 64.753906 38.894531 64.984375 39.058594 65.140625 39.214844 C 65.378906 39.445312 65.011719 39.59375 64.910156 39.761719 C 64.351562 40.679688 63.890625 41.640625 63.441406 42.613281 C 63.113281 42.46875 62.785156 42.328125 62.457031 42.191406 Z M 62.457031 42.191406 "/>
<path style=" stroke:none;fill-rule:nonzero;fill:rgb(4.705882%,17.254902%,29.803923%);fill-opacity:1;" d="M 63.359375 44.929688 C 63.164062 44.769531 62.984375 44.917969 62.78125 45.007812 C 61.945312 45.386719 61.050781 44.921875 60.878906 44.007812 C 60.84375 43.824219 60.734375 43.746094 60.625 43.632812 C 60.5 43.496094 60.4375 43.339844 60.550781 43.164062 C 60.667969 42.972656 60.839844 42.988281 61.003906 43.066406 C 61.878906 43.460938 62.75 43.863281 63.621094 44.269531 C 63.78125 44.339844 63.882812 44.460938 63.816406 44.644531 C 63.753906 44.839844 63.613281 44.953125 63.359375 44.929688 Z M 63.359375 44.929688 "/>
<path style=" stroke:none;fill-rule:nonzero;fill:rgb(4.705882%,17.254902%,29.803923%);fill-opacity:1;" d="M 64.503906 43.757812 C 64.515625 44.035156 64.226562 44.265625 63.945312 44.140625 C 62.921875 43.695312 61.90625 43.222656 60.890625 42.753906 C 60.664062 42.652344 60.621094 42.441406 60.710938 42.230469 C 60.804688 42.015625 60.996094 41.925781 61.222656 42.027344 C 62.242188 42.488281 63.257812 42.949219 64.273438 43.421875 C 64.40625 43.480469 64.496094 43.597656 64.503906 43.757812 Z M 64.503906 43.757812 "/>
<path style=" stroke:none;fill-rule:nonzero;fill:rgb(94.901961%,60.000002%,29.803923%);fill-opacity:1;" d="M 71.25 37.289062 C 71.457031 37.300781 71.660156 37.304688 71.863281 37.332031 C 72.136719 37.371094 72.296875 37.53125 72.253906 37.816406 C 72.21875 38.070312 72.042969 38.195312 71.785156 38.179688 C 71.425781 38.15625 71.070312 38.121094 70.707031 38.089844 C 70.453125 38.0625 70.289062 37.921875 70.300781 37.664062 C 70.308594 37.410156 70.472656 37.273438 70.734375 37.265625 C 70.902344 37.257812 71.078125 37.265625 71.25 37.265625 C 71.25 37.273438 71.25 37.28125 71.25 37.289062 Z M 71.25 37.289062 "/>
<path style=" stroke:none;fill-rule:nonzero;fill:rgb(94.901961%,60.000002%,29.803923%);fill-opacity:1;" d="M 60.816406 34.464844 C 60.757812 34.4375 60.652344 34.414062 60.566406 34.347656 C 60.285156 34.148438 60.015625 33.9375 59.742188 33.726562 C 59.515625 33.550781 59.5 33.320312 59.65625 33.109375 C 59.808594 32.902344 60.03125 32.902344 60.238281 33.054688 C 60.542969 33.28125 60.839844 33.507812 61.128906 33.746094 C 61.277344 33.863281 61.316406 34.035156 61.234375 34.210938 C 61.160156 34.359375 61.035156 34.445312 60.816406 34.464844 Z M 60.816406 34.464844 "/>
<path style=" stroke:none;fill-rule:nonzero;fill:rgb(94.901961%,60.000002%,29.803923%);fill-opacity:1;" d="M 71.09375 33.566406 C 71.089844 33.722656 71.007812 33.835938 70.886719 33.917969 C 70.585938 34.125 70.285156 34.332031 69.980469 34.527344 C 69.765625 34.667969 69.578125 34.574219 69.449219 34.394531 C 69.316406 34.207031 69.308594 34.003906 69.515625 33.855469 C 69.824219 33.632812 70.125 33.402344 70.453125 33.210938 C 70.75 33.03125 71.097656 33.238281 71.09375 33.566406 Z M 71.09375 33.566406 "/>
<path style=" stroke:none;fill-rule:nonzero;fill:rgb(94.901961%,60.000002%,29.803923%);fill-opacity:1;" d="M 63.546875 32.183594 C 63.566406 32.496094 63.453125 32.628906 63.277344 32.679688 C 63.089844 32.734375 62.882812 32.722656 62.792969 32.511719 C 62.632812 32.125 62.476562 31.730469 62.355469 31.328125 C 62.304688 31.15625 62.402344 30.984375 62.582031 30.90625 C 62.773438 30.820312 62.984375 30.832031 63.078125 31.027344 C 63.265625 31.4375 63.414062 31.863281 63.546875 32.183594 Z M 63.546875 32.183594 "/>
<path style=" stroke:none;fill-rule:nonzero;fill:rgb(94.901961%,60.000002%,29.803923%);fill-opacity:1;" d="M 66.640625 32.21875 C 66.765625 31.863281 66.898438 31.457031 67.066406 31.066406 C 67.148438 30.867188 67.34375 30.824219 67.550781 30.902344 C 67.753906 30.976562 67.863281 31.136719 67.796875 31.347656 C 67.675781 31.738281 67.539062 32.125 67.386719 32.507812 C 67.292969 32.746094 67.066406 32.753906 66.859375 32.6875 C 66.679688 32.628906 66.609375 32.464844 66.640625 32.21875 Z M 66.640625 32.21875 "/>
<path style=" stroke:none;fill-rule:nonzero;fill:rgb(94.901961%,60.000002%,29.803923%);fill-opacity:1;" d="M 63.527344 38.238281 C 63.320312 37.980469 63.136719 37.796875 63.3125 37.515625 C 63.351562 37.457031 63.421875 37.4375 63.472656 37.488281 C 63.683594 37.691406 63.667969 37.921875 63.527344 38.238281 Z M 63.527344 38.238281 "/>
<path style=" stroke:none;fill-rule:nonzero;fill:rgb(94.901961%,60.000002%,29.803923%);fill-opacity:1;" d="M 65.792969 39.074219 C 65.933594 38.800781 66.082031 38.625 66.371094 38.664062 C 66.488281 38.675781 66.523438 38.777344 66.472656 38.871094 C 66.320312 39.140625 66.078125 39.105469 65.792969 39.074219 Z M 65.792969 39.074219 "/>
<path style=" stroke:none;fill-rule:nonzero;fill:rgb(94.901961%,60.000002%,29.803923%);fill-opacity:1;" d="M 65.066406 38.214844 C 65.015625 38.363281 64.921875 38.519531 64.769531 38.546875 C 64.617188 38.582031 64.628906 38.414062 64.636719 38.3125 C 64.652344 38.148438 64.710938 37.996094 64.914062 38.007812 C 65.015625 38.015625 65.066406 38.101562 65.066406 38.214844 Z M 65.066406 38.214844 "/>
</g>
</svg>
